<svg xmlns="http://www.w3.org/2000/svg" viewBox="0 0 386 112.97"><defs><style>.cls-1{fill:#337db9;}</style></defs><g id="Layer_2" data-name="Layer 2"><g id="Слой_1" data-name="Слой 1"><path class="cls-1" d="M169.61,2.61A14,14,0,0,0,165.69.88a21.41,21.41,0,0,0-4.11-.7c-1.35-.1-2.92-.16-4.69-.18H144.05V47.53h6.1V29h7.92a33.52,33.52,0,0,0,6.82-.61,14.14,14.14,0,0,0,5.58-2.52A13.18,13.18,0,0,0,176,14.57a14.74,14.74,0,0,0-1.63-6.84A13,13,0,0,0,169.61,2.61Zm-.7,16a7.45,7.45,0,0,1-2.7,3A10.18,10.18,0,0,1,162.42,23a32.18,32.18,0,0,1-5.09.34h-7.18V5.67h5.18l1.56,0,1.54,0a16.1,16.1,0,0,1,6.19,1,8.22,8.22,0,0,1,5.28,7.9A8.85,8.85,0,0,1,168.91,18.57Z"/><path class="cls-1" d="M186,15V12h-5.87V47.53h6.11V27.72a15.53,15.53,0,0,1,.6-4.87,8.35,8.35,0,0,1,2.63-3.4,9.84,9.84,0,0,1,5.73-2.2l.7-.05v-6l-.78,0C191,11.34,188,12.61,186,15Z"/><path class="cls-1" d="M199.61,12h-.75V47.53H205V12h-5.36Z"/><polygon class="cls-1" points="199.61 0 198.86 0 198.86 0.75 198.86 8.6 198.86 9.35 199.61 9.35 204.22 9.35 204.97 9.35 204.97 8.6 204.97 0.75 204.97 0 204.22 0 199.61 0"/><path class="cls-1" d="M237.17,12h-.5l-.2.46L225.39,39,214.3,12.41l-.2-.46h-6.6l.44,1,14.33,34.08.19.46h5.79l.19-.46L242.83,13l.44-1h-6.1Z"/><path class="cls-1" d="M276.84,12h-.75v4.72a13.6,13.6,0,0,0-4.39-3.52,17.85,17.85,0,0,0-8.2-1.94c-5.49,0-10.61,2.5-15.21,7.44A12.11,12.11,0,0,0,245.78,23a17.83,17.83,0,0,0-1.27,6.49,19.82,19.82,0,0,0,1.14,6.78,13.92,13.92,0,0,0,2.41,4.57,22.1,22.1,0,0,0,7.35,5.59,19.6,19.6,0,0,0,8.22,1.87,18.33,18.33,0,0,0,5.48-.85A15.51,15.51,0,0,0,274,44.91a13.52,13.52,0,0,0,2.12-2.09v4.71H282V12h-5.17ZM269.77,40.7a11.88,11.88,0,0,1-6.14,1.71,13.31,13.31,0,0,1-11.22-6.22,11.76,11.76,0,0,1-1.8-6.29,12.41,12.41,0,0,1,1.75-6.42,12.88,12.88,0,0,1,4.71-4.65,12.72,12.72,0,0,1,6.43-1.7,12.4,12.4,0,0,1,10.94,6.37A13.24,13.24,0,0,1,276.09,30a11.89,11.89,0,0,1-1.71,6.15A13,13,0,0,1,269.77,40.7Z"/><path class="cls-1" d="M298.39,12V0h-6.11V12h-7.1v5.67h7.1V47.53h6.11V17.62h7.91V12h-7.91Z"/><path class="cls-1" d="M338.57,34.94h-.49l-.19.45a11,11,0,0,1-2.71,3.7,13.14,13.14,0,0,1-4.1,2.46,13.45,13.45,0,0,1-4.72.86,11.82,11.82,0,0,1-5.69-1.51,13,13,0,0,1-4.53-4.09,10.47,10.47,0,0,1-1.8-4.67h30.8l0-.77a30.87,30.87,0,0,0-1-7.26,17,17,0,0,0-3.17-6,19.07,19.07,0,0,0-6.4-5.08,18,18,0,0,0-7.9-1.81,18.48,18.48,0,0,0-18.5,18.57A18.48,18.48,0,0,0,326.8,48.33a17.43,17.43,0,0,0,7.23-1.6,19.38,19.38,0,0,0,6.15-4.42,17.93,17.93,0,0,0,3.89-6.37l.35-1h-5.85Zm-22-12.83a12.51,12.51,0,0,1,4.47-3.66,12.68,12.68,0,0,1,5.66-1.32,11.85,11.85,0,0,1,5.51,1.36,13.25,13.25,0,0,1,4.43,3.71,12.26,12.26,0,0,1,2.14,4.27H314.46A12,12,0,0,1,316.6,22.11Z"/><path class="cls-1" d="M174.2,101.55a34.07,34.07,0,0,0,.68-7.2V66.63h-4.1V94.35a28.67,28.67,0,0,1-.53,5.8,11.51,11.51,0,0,1-2.06,4.62,9.68,9.68,0,0,1-3.81,3.14A11.31,11.31,0,0,1,159.5,109a11.09,11.09,0,0,1-5.23-1.29,10.33,10.33,0,0,1-4-3.61c-1.44-2.27-2.17-5.57-2.17-9.79V66.63h-4.1V94.35a41.75,41.75,0,0,0,.27,4.93,18.46,18.46,0,0,0,1.07,4.35,14.75,14.75,0,0,0,2.28,4,14.37,14.37,0,0,0,5.25,4,15.95,15.95,0,0,0,13.33-.1,13.81,13.81,0,0,0,5.25-4.25A14.1,14.1,0,0,0,174.2,101.55Z"/><path class="cls-1" d="M210.63,83.42a15.27,15.27,0,0,0-5.36-4.13,15.51,15.51,0,0,0-6.54-1.45,12.23,12.23,0,0,0-10.38,5.57l-.45.64V78.59H184v33.57h4.1V94.47a37.87,37.87,0,0,1,.35-5A7.76,7.76,0,0,1,190,86.05a10,10,0,0,1,3.77-3.14,10.75,10.75,0,0,1,4.79-1.15,11.43,11.43,0,0,1,5.1,1.16,10.11,10.11,0,0,1,3.88,3.32,9.23,9.23,0,0,1,1.63,3.66,22.93,22.93,0,0,1,.41,4.57v17.69h4.11V94.47a26.13,26.13,0,0,0-.65-6.21A12.59,12.59,0,0,0,210.63,83.42Z"/><rect class="cls-1" x="222.03" y="66.63" width="4.11" height="7.35"/><polyline class="cls-1" points="226.14 78.59 226.14 112.16 222.03 112.16 222.03 78.59 226.14 78.59"/><polyline class="cls-1" points="263.94 78.59 249.76 112.16 245.3 112.16 231.18 78.59 235.61 78.59 247.34 106.65 247.56 107.21 247.8 106.65 259.51 78.59 263.94 78.59"/><path class="cls-1" d="M294.35,105.47a13.84,13.84,0,0,1-4.41,2.65,14.52,14.52,0,0,1-5.07.92,12.8,12.8,0,0,1-6.17-1.63,14.14,14.14,0,0,1-4.88-4.4,11.38,11.38,0,0,1-2-6v-.26h30.84a29.07,29.07,0,0,0-.94-6.76,15.71,15.71,0,0,0-3-5.65,17.82,17.82,0,0,0-6.05-4.8,16.91,16.91,0,0,0-7.47-1.72A17.33,17.33,0,0,0,270,86.57a17.5,17.5,0,0,0-2.34,8.84,17.42,17.42,0,0,0,8.75,15.22,17.56,17.56,0,0,0,8.88,2.34,16.3,16.3,0,0,0,6.82-1.52,18.18,18.18,0,0,0,5.83-4.19,17.06,17.06,0,0,0,3.55-5.68h-4.27A11.84,11.84,0,0,1,294.35,105.47ZM271.79,92.81a13.08,13.08,0,0,1,2.52-5.68,13.8,13.8,0,0,1,10.93-5.37,12.78,12.78,0,0,1,6,1.48,14.09,14.09,0,0,1,4.76,4,13.23,13.23,0,0,1,2.54,5.59l.06.3H271.74Z"/><path class="cls-1" d="M323.23,77.85v4.06a10.69,10.69,0,0,0-6.07,2.41,9.19,9.19,0,0,0-2.93,3.84,16.31,16.31,0,0,0-.66,5.2v18.8h-4.1V78.59h3.86v5.84l.48-1.07c1.54-3.44,4.71-5.29,9.42-5.51"/><path class="cls-1" d="M336.25,77.84a8.94,8.94,0,0,1,4.55,1.24,9.27,9.27,0,0,1,3.36,3.31,8.46,8.46,0,0,1,1.23,4.18h-4.11a4.58,4.58,0,0,0-1.57-3.44,5.8,5.8,0,0,0-4-1.37,5.12,5.12,0,0,0-4.12,8,5.57,5.57,0,0,0,2.11,1.74,21.9,21.9,0,0,0,3.18,1.19,27.83,27.83,0,0,1,5,2.07,9,9,0,0,1,3.18,3,8.5,8.5,0,0,1,1.2,4.7,10.83,10.83,0,0,1-1.4,5.49,9.78,9.78,0,0,1-3.85,3.75,11.39,11.39,0,0,1-5.52,1.34,9.57,9.57,0,0,1-5-1.4,10.21,10.21,0,0,1-3.69-3.83,10.73,10.73,0,0,1-1.37-5.1h4.11a6.7,6.7,0,0,0,3.15,5.49,6,6,0,0,0,3.25.91,6.33,6.33,0,0,0,4.42-1.65,5.54,5.54,0,0,0,1.82-4.25,5.44,5.44,0,0,0-1.87-4.46,13.1,13.1,0,0,0-4.92-2.32A39.27,39.27,0,0,1,331.62,95a7.57,7.57,0,0,1-2.3-1.58,8,8,0,0,1-2.66-6.29,9,9,0,0,1,1.3-4.74A9.16,9.16,0,0,1,331.47,79a9.89,9.89,0,0,1,4.78-1.2"/><path class="cls-1" d="M377.74,105.47a13.89,13.89,0,0,1-4.42,2.65,14.42,14.42,0,0,1-5.06.92,12.8,12.8,0,0,1-6.17-1.63,14,14,0,0,1-4.88-4.4,11.39,11.39,0,0,1-2-6v-.26H386a28.58,28.58,0,0,0-.93-6.76,15.87,15.87,0,0,0-3-5.65,18,18,0,0,0-6.06-4.8,16.83,16.83,0,0,0-7.46-1.72,17.57,17.57,0,0,0-8.75,32.79A17.57,17.57,0,0,0,368.7,113a16.26,16.26,0,0,0,6.81-1.52,18.22,18.22,0,0,0,5.84-4.19,17.06,17.06,0,0,0,3.55-5.68h-4.27A11.84,11.84,0,0,1,377.74,105.47ZM355.18,92.81a13.08,13.08,0,0,1,2.52-5.68,13.54,13.54,0,0,1,4.83-3.95,13.75,13.75,0,0,1,6.09-1.42,12.82,12.82,0,0,1,6,1.48,14.29,14.29,0,0,1,4.76,4,13.35,13.35,0,0,1,2.54,5.59l.06.3H355.12Z"/><path class="cls-1" d="M0,0V113H113V0ZM95.07,76c-4.42,8.75-14.57,14-27.16,14a56.36,56.36,0,0,1-25.12-6.3C21.51,72.89,10.35,52,17.9,37c4.41-8.76,14.57-14,27.16-14a56.36,56.36,0,0,1,25.12,6.3C91.45,40.08,102.62,61,95.07,76Z"/><path class="cls-1" d="M67.5,34.65A50.39,50.39,0,0,0,45.06,29c-10.3,0-18.47,4-21.85,10.7-6.08,12,3.91,29.37,22.26,38.63A50.39,50.39,0,0,0,67.91,84c10.3,0,18.47-4,21.85-10.71C95.83,61.23,85.85,43.91,67.5,34.65Z"/></g></g></svg>